<?xml version="1.0" encoding="UTF-8"?>
<svg width="26px" height="26px" viewBox="0 0 26 26" version="1.1" xmlns="http://www.w3.org/2000/svg" xmlns:xlink="http://www.w3.org/1999/xlink">
    <!-- Generator: Sketch 50.2 (55047) - http://www.bohemiancoding.com/sketch -->
    <title>Page 1</title>
    <desc>Created with Sketch.</desc>
    <defs></defs>
    <g id="Search-Bar-Design" stroke="none" stroke-width="1" fill="none" fill-rule="evenodd">
        <g id="Mopbile-Menu-open" transform="translate(-48.000000, -162.000000)" fill="#13CE66">
            <g id="Group" transform="translate(36.000000, 149.000000)">
                <path d="M21.2020571,28.6094768 C24.7764421,28.6141268 27.6119462,25.8014723 27.6347155,22.2287709 C27.6574047,18.6726655 24.778206,15.7742251 21.2192944,15.7705371 C17.66824,15.7668491 14.7799014,18.6583946 14.7830282,22.214019 C14.7862352,25.7715675 17.6299169,28.6048267 21.2020571,28.6094768 M30.39662,21.9055105 C30.3732895,24.0084672 29.8960153,25.6714306 28.9003379,27.1633833 C28.6478708,27.5415628 28.6920465,27.7367056 29.0036818,28.0452943 C31.5669159,30.5831935 34.1108281,33.1407352 36.6587489,35.6941079 C37.2450594,36.2816209 37.3737382,36.919002 37.0346835,37.4972951 C36.5504342,38.3234853 35.5288607,38.4476744 34.8168379,37.7448715 C33.6093414,36.553009 32.4158754,35.3468755 31.2168774,34.1464344 C29.7819281,32.7095609 28.34289,31.276616 26.9174814,29.8303622 C26.7157643,29.6257589 26.5895709,29.6217502 26.3524972,29.7805743 C20.8302114,33.4807519 13.4701835,30.4370368 12.1705675,23.9226813 C11.1860342,18.9878284 14.5718506,14.0346157 19.5349247,13.1492573 C25.2184399,12.1353804 30.3550099,16.4219486 30.39662,21.9055105" id="Page-1"></path>
            </g>
        </g>
    </g>
</svg>