<svg xmlns="http://www.w3.org/2000/svg" xmlns:xlink="http://www.w3.org/1999/xlink" width="41" height="32" viewBox="0 0 41 32">
  <defs>
    <path id="pyxl-white-a" d="M6.271,0.939 L6.271,8.121 C5.86,8.471 5.358,8.763 4.597,8.763 C3.219,8.763 2.056,7.599 2.056,6.221 L2.056,0.939 L0.874,0.939 L0.874,6.221 C0.874,8.24 2.604,9.946 4.597,9.946 C6.59,9.946 7.454,8.669 7.454,8.669 L7.454,0.939 L6.271,0.939 Z"/>
    <path id="pyxl-white-c" d="M3.019,0.939 L3.019,10.567 C2.967,12.138 1.933,13.791 0.563,14.727 L1.408,15.589 C2.744,14.616 3.762,13.104 4.089,11.514 C4.161,11.204 4.2,10.884 4.2,10.558 L4.2,10.443 C4.2,10.424 4.201,10.406 4.2,10.388 L4.2,0.939 L3.019,0.939 Z"/>
    <path id="pyxl-white-e" d="M0.126,0.939 L0.126,6.221 C0.126,9.239 2.579,11.693 5.597,11.693 C6.152,11.693 6.639,11.611 7.04,11.503 C6.676,12.26 5.82,13.103 5.306,13.448 L6.15,14.308 C7.337,13.52 8.296,12.105 8.439,10.783 C8.448,10.734 8.454,10.691 8.454,10.656 L8.454,9.494 C7.906,9.952 6.961,10.511 5.597,10.511 C3.295,10.511 1.307,8.587 1.307,6.221 L1.307,0.939 L0.126,0.939 Z"/>
    <path id="pyxl-white-g" d="M0.489,3.086 L0.411,3.21 L0.411,15.589 L1.594,15.589 L1.594,3.557 C2.274,2.608 3.648,1.933 4.94,1.933 C7.346,1.933 9.23,3.817 9.23,6.221 C9.23,8.627 7.32,10.511 4.94,10.511 C3.27,10.511 2.141,9.462 2.141,9.462 L2.141,15.589 L3.324,15.589 L3.324,11.457 C3.835,11.608 4.401,11.693 4.94,11.693 C8.009,11.693 10.412,9.29 10.412,6.221 C10.412,3.153 8.009,0.75 4.94,0.75 C3.171,0.75 1.34,1.711 0.489,3.086 Z"/>
    <path id="pyxl-white-i" d="M0.56,1.424 L0.16,1.776 L0.16,6.65 C0.16,6.65 1.232,7.946 2.94,7.946 C4.983,7.946 6.645,6.275 6.645,4.221 C6.645,2.203 4.949,0.498 2.94,0.498 C2.081,0.498 1.236,0.827 0.56,1.424 Z M1.343,6.139 L1.343,2.31 C1.634,2.053 2.187,1.68 2.94,1.68 C4.307,1.68 5.463,2.844 5.463,4.221 C5.463,5.623 4.331,6.763 2.94,6.763 C2.163,6.763 1.702,6.478 1.343,6.139 Z"/>
  </defs>
  <g fill="none" fill-rule="evenodd" transform="translate(2 8)">
    <polygon fill="#FFF" points="34.241 14.805 35.423 14.805 35.423 .411 34.241 .411"/>
    <polygon fill="#FFF" points="34.241 14.805 35.423 14.805 35.423 .411 34.241 .411"/>
    <polygon fill="#FFF" points="35.99 14.805 37.172 14.805 37.172 .411 35.99 .411"/>
    <polygon fill="#FFF" points="35.99 14.805 37.172 14.805 37.172 .411 35.99 .411"/>
    <polygon fill="#FFF" points="29.907 9.056 29.91 9.059 33.528 4.24 32.042 4.24 29.172 8.07"/>
    <polygon fill="#FFF" points="32.042 4.241 29.172 8.07 29.907 9.056 29.91 9.06 33.528 4.241"/>
    <polygon fill="#FFF" points="28.82 7.599 31.326 4.24 29.849 4.24 28.076 6.603"/>
    <polygon fill="#FFF" points="29.849 4.241 28.076 6.603 28.82 7.6 31.326 4.241"/>
    <polygon fill="#FFF" points="29.907 9.99 29.172 10.974 32.048 14.805 33.528 14.805 29.91 9.987"/>
    <polygon fill="#FFF" points="29.907 9.99 29.172 10.975 32.047 14.805 33.528 14.805 29.91 9.987"/>
    <polygon fill="#FFF" points="28.076 12.442 29.85 14.806 31.33 14.806 28.821 11.445"/>
    <polygon fill="#FFF" points="28.076 12.441 29.849 14.805 31.329 14.805 28.82 11.445"/>
    <polygon fill="#FFF" points="23.395 14.806 27.36 9.523 23.4 4.24 21.915 4.24 25.881 9.523 21.915 14.806"/>
    <polygon fill="#FFF" points="21.915 4.241 25.881 9.523 21.915 14.806 23.395 14.806 27.36 9.523 23.4 4.241"/>
    <polygon fill="#FFF" points="25.593 4.241 24.116 4.241 27.709 9.056 28.08 9.523 27.709 9.99 24.113 14.806 25.593 14.806 29.559 9.523"/>
    <polygon fill="#FFF" points="24.116 4.241 27.708 9.056 28.08 9.523 27.708 9.99 24.112 14.806 25.592 14.806 29.558 9.523 25.592 4.241"/>
    <path fill="#FFF" d="M16.5967,13.2474 C18.5897,13.2474 19.4527,11.9714 19.4527,11.9714 L19.4527,4.2404 L18.2707,4.2404 L18.2707,11.4234 C17.8597,11.7724 17.3587,12.0644 16.5967,12.0644 C15.2197,12.0644 14.0557,10.9014 14.0557,9.5234 L14.0557,4.2404 L12.8737,4.2404 L12.8737,9.5234 C12.8737,11.5424 14.6037,13.2474 16.5967,13.2474"/>
    <g transform="translate(12 3.302)">
      <mask id="pyxl-white-b" fill="#fff">
        <use xlink:href="#pyxl-white-a"/>
      </mask>
      <polygon fill="#FFF" points=".462 10.356 7.865 10.356 7.865 .526 .462 .526" mask="url(#pyxl-white-b)"/>
    </g>
    <path fill="#FFF" d="M20.0186,4.2406 L20.0186,13.8686 C19.9666,15.4406 18.9336,17.0936 17.5626,18.0296 L18.4076,18.8906 C19.7446,17.9176 20.7616,16.4056 21.0886,14.8166 C21.1606,14.5066 21.2006,14.1866 21.2006,13.8606 L21.2006,13.7446 C21.2006,13.7256 21.2016,13.7076 21.2006,13.6896 L21.2006,4.2406 L20.0186,4.2406 Z"/>
    <g transform="translate(17 3.302)">
      <mask id="pyxl-white-d" fill="#fff">
        <use xlink:href="#pyxl-white-c"/>
      </mask>
      <polygon fill="#FFF" points=".151 16 4.613 16 4.613 .527 .151 .527" mask="url(#pyxl-white-d)"/>
    </g>
    <path fill="#FFF" d="M19.4395,14.0844 C19.4475,14.0364 19.4535,13.9934 19.4535,13.9584 L19.4535,12.7964 C18.9065,13.2534 17.9605,13.8134 16.5965,13.8134 C14.2945,13.8134 12.3075,11.8884 12.3075,9.5234 L12.3075,4.2404 L11.1255,4.2404 L11.1255,9.5234 C11.1255,12.5414 13.5795,14.9954 16.5965,14.9954 C17.1525,14.9954 17.6395,14.9134 18.0405,14.8044 C17.6765,15.5624 16.8195,16.4054 16.3065,16.7504 L17.1505,17.6094 C18.3365,16.8214 19.2965,15.4074 19.4395,14.0844"/>
    <g transform="translate(11 3.302)">
      <mask id="pyxl-white-f" fill="#fff">
        <use xlink:href="#pyxl-white-e"/>
      </mask>
      <polygon fill="#FFF" points="-.286 14.719 8.865 14.719 8.865 .527 -.286 .527" mask="url(#pyxl-white-f)"/>
    </g>
    <path fill="#FFF" d="M4.9404,4.0526 C3.1704,4.0526 1.3394,5.0126 0.4884,6.3876 L0.4114,6.5116 L0.4114,18.8906 L1.5934,18.8906 L1.5934,6.8596 C2.2734,5.9096 3.6474,5.2346 4.9404,5.2346 C7.3454,5.2346 9.2304,7.1186 9.2304,9.5236 C9.2304,11.9286 7.3194,13.8136 4.9404,13.8136 C3.2704,13.8136 2.1414,12.7636 2.1414,12.7636 L2.1414,18.8906 L3.3234,18.8906 L3.3234,14.7586 C3.8354,14.9106 4.4014,14.9956 4.9404,14.9956 C8.0084,14.9956 10.4124,12.5916 10.4124,9.5236 C10.4124,6.4556 8.0084,4.0526 4.9404,4.0526"/>
    <g transform="translate(0 3.302)">
      <mask id="pyxl-white-h" fill="#fff">
        <use xlink:href="#pyxl-white-g"/>
      </mask>
      <polygon fill="#FFF" points="0 16 10.824 16 10.824 .339 0 .339" mask="url(#pyxl-white-h)"/>
    </g>
    <path fill="#FFF" d="M3.3423,7.6122 C3.6343,7.3552 4.1863,6.9822 4.9403,6.9822 C6.3073,6.9822 7.4633,8.1462 7.4633,9.5242 C7.4633,10.9252 6.3313,12.0652 4.9403,12.0652 C4.1633,12.0652 3.7013,11.7802 3.3423,11.4412 L3.3423,7.6122 Z M8.6453,9.5242 C8.6453,7.5052 6.9483,5.8002 4.9403,5.8002 C4.0813,5.8002 3.2363,6.1292 2.5593,6.7262 L2.1603,7.0782 L2.1603,11.9512 C2.1603,11.9512 3.2313,13.2472 4.9403,13.2472 C6.9833,13.2472 8.6453,11.5772 8.6453,9.5242 Z"/>
    <g transform="translate(2 5.302)">
      <mask id="pyxl-white-j" fill="#fff">
        <use xlink:href="#pyxl-white-i"/>
      </mask>
      <polygon fill="#FFF" points="-.251 8.357 7.058 8.357 7.058 .086 -.251 .086" mask="url(#pyxl-white-j)"/>
    </g>
  </g>
</svg>
