<svg width="154px" height="20px" viewBox="0 0 154 20" version="1.1" xmlns="http://www.w3.org/2000/svg" xmlns:xlink="http://www.w3.org/1999/xlink">
    <!-- Generator: Sketch 54.1 (76490) - https://sketchapp.com -->
    <title>Group 16</title>
    <desc>Created with Sketch.</desc>
    <g id="Page-1" stroke="none" stroke-width="1" fill="none" fill-rule="evenodd">
        <g id="00_Flytevu_Menu_Desktop-HD" transform="translate(-150.000000, -64.000000)" fill="#131313">
            <g id="Group-16" transform="translate(150.000000, 64.000000)">
                <g id="Group-15">
                    <path d="M14.708636,0 L14.708636,1.76136364 L14.708636,2.32954545 L14.708636,4.82954545 L14.5954926,4.82954545 L14.2560626,4.82954545 L13.124629,4.82954545 C12.785199,4.82954545 12.615484,4.65909091 12.5023406,4.375 C12.5023406,4.14772727 12.3891972,3.63636364 12.3326256,2.72727273 C9.67375675,2.78409091 8.31603651,2.84090909 5.60059601,2.84090909 L5.60059601,8.57954545 C8.25946483,8.46590909 9.61718507,8.40909091 12.2760539,8.29545455 L12.2760539,11.0795455 C9.61718507,11.25 8.25946483,11.3068182 5.60059601,11.4772727 L5.60059601,16.7045455 C5.94002608,16.7045455 6.22288446,16.7613636 6.39259949,16.7613636 C6.56231452,16.7613636 6.73202955,16.8181818 6.78860123,16.8181818 L6.95831626,16.8181818 C7.41088968,16.875 7.63717638,17.1022727 7.63717638,17.5568182 L7.63717638,19.1477273 C6.84517291,19.2045455 6.44917117,19.2613636 5.65716769,19.375 C4.24287577,19.5454545 3.50744397,19.6022727 2.09315205,19.7727273 C1.18800522,19.8863636 0.792003477,19.8863636 0,20 L0,18.3522727 C0,17.8977273 0.226286708,17.5568182 0.678860123,17.4431818 C0.678860123,17.4431818 0.7354318,17.3863636 0.848575154,17.3863636 C0.905146831,17.3863636 1.07486186,17.3295455 1.24457689,17.2727273 C1.41429192,17.2159091 1.69715031,17.1590909 1.98000869,17.0454545 L1.98000869,2.67045455 C1.69715031,2.67045455 1.41429192,2.61363636 1.24457689,2.55681818 C1.07486186,2.55681818 0.905146831,2.5 0.848575154,2.5 L0.678860123,2.5 C0.226286708,2.38636364 0,2.10227273 0,1.64772727 L0,0 L2.03658037,0 L13.4640591,0 L14.0863476,0 L14.708636,0 Z" id="Fill-1"></path>
                    <path d="M35.4737692,13.059989 L35.4737692,15.4870666 L35.4737692,15.9493671 L35.4737692,17.2206935 C35.2477541,17.2206935 35.0782428,17.2206935 34.8522278,17.278481 L34.795724,17.278481 C30.3319267,17.5674188 28.1282799,17.7407815 23.6644825,18.0875069 C22.8734299,18.1452944 22.4779035,18.2025041 21.6303471,18.2608696 L21.6303471,16.7578151 C21.6303471,16.35388 21.8563621,16.0649422 22.3083922,15.9493671 C22.3083922,15.9493671 22.364896,15.9493671 22.4779035,15.8910017 C22.5344073,15.833792 22.7039186,15.833792 22.8734299,15.7760044 C23.0429411,15.7182168 23.32546,15.6604293 23.6644825,15.6020638 C23.6644825,10.3439736 23.6644825,7.7435333 23.7209863,2.48486516 C23.3819637,2.4270776 23.0994449,2.36929004 22.9299336,2.36929004 C22.7039186,2.25371491 22.590911,2.25371491 22.4779035,2.25371491 L22.3083922,2.25371491 C21.8563621,2.13813979 21.6303471,1.90698954 21.6303471,1.50247661 L21.6303471,0 L23.6644825,0 L27.2242197,0 L29.2583552,0 L29.2583552,1.44468905 C29.2583552,1.84920198 29.0323401,2.08035223 28.58031,2.19592735 L28.4107987,2.19592735 C28.3542949,2.19592735 28.1847836,2.25371491 28.0152724,2.25371491 C27.8457611,2.25371491 27.5632422,2.31150248 27.2242197,2.36929004 C27.2242197,7.39680793 27.2242197,9.93946065 27.1677159,15.0241882 C29.6538815,14.8514034 30.8404605,14.7936159 33.3266261,14.6780407 C33.3831299,14.1001651 33.3831299,13.7534397 33.4396337,13.6378646 C33.4961374,13.3489268 33.7221525,13.1755641 34.0611751,13.1755641 C34.6262127,13.1177766 34.9087315,13.059989 35.4737692,13.059989" id="Fill-3"></path>
                    <path d="M57.9693301,0.0567757358 L57.9693301,1.36261766 C57.9693301,1.76004781 57.7350568,1.98715075 57.2665102,2.04392649 L57.0908052,2.04392649 C57.0322369,2.04392649 56.8565319,2.10070223 56.680827,2.10070223 C56.505122,2.10070223 56.2122804,2.15747796 55.8608704,2.2142537 C53.6352741,5.28014343 52.5224759,6.8130883 50.2383113,9.93575377 L50.2383113,14.0236068 C50.5897212,14.0803825 50.8239945,14.0803825 51.0582678,14.1371582 C51.2339728,14.1371582 51.4096778,14.193934 51.4682461,14.193934 L51.6439511,14.193934 C52.1124977,14.2507097 52.346771,14.4778126 52.346771,14.8752428 L52.346771,16.1810847 C51.5268144,16.2378605 51.1168362,16.2378605 50.2968796,16.2378605 C48.8326715,16.2946362 48.0712833,16.3514119 46.6070752,16.4081877 C45.7871186,16.4649634 45.3771404,16.4649634 44.4986155,16.5217391 L44.4986155,15.1591215 C44.4986155,14.7616913 44.7328888,14.5345884 45.2014354,14.4210369 C45.2014354,14.4210369 45.318572,14.4210369 45.3771404,14.3642612 C45.4357087,14.3642612 45.6114137,14.3074854 45.7871186,14.3074854 C45.9628236,14.2507097 46.2556652,14.193934 46.6070752,14.1371582 L46.6070752,9.99252951 C44.3814789,6.92663977 43.2686807,5.39369491 41.0430844,2.27102943 C40.6916744,2.2142537 40.3988328,2.15747796 40.2231278,2.15747796 C40.0474229,2.15747796 39.8717179,2.10070223 39.8131496,2.10070223 L39.6374446,2.10070223 C39.168898,1.98715075 38.9346247,1.76004781 38.9346247,1.36261766 L38.9346247,0 L39.4031713,0 L39.8717179,0 L40.984516,0 L42.6244291,0 L46.3142336,0 L46.3142336,1.36261766 C46.3142336,1.76004781 46.0799603,1.98715075 45.6114137,2.04392649 L45.494277,2.04392649 C45.4357087,2.04392649 45.318572,2.10070223 45.2014354,2.10070223 C45.0842988,2.10070223 44.9671621,2.15747796 44.7914571,2.15747796 C45.845687,3.74719857 46.3728019,4.54205887 47.4270317,6.07500374 C47.661305,6.41565815 47.83701,6.69953683 47.9541466,6.98341551 C48.1298516,7.26729419 48.2469883,7.55117287 48.3641249,7.83505155 C48.4812616,7.55117287 48.5983982,7.26729419 48.7741032,6.98341551 C48.9498082,6.69953683 49.1255131,6.41565815 49.3012181,6.07500374 C50.3554479,4.48528313 50.8825629,3.69042283 51.9367927,2.10070223 C51.8196561,2.10070223 51.6439511,2.04392649 51.5268144,2.04392649 C51.4096778,2.04392649 51.3511095,1.98715075 51.2925411,1.98715075 L51.1754045,1.98715075 C50.7068579,1.87359928 50.4725846,1.70327208 50.4725846,1.30584192 L50.4725846,0 L54.162389,0 L55.8023021,0 L56.9736686,0 L57.4422152,0 C57.6764885,0.0567757358 57.7936251,0.0567757358 57.9693301,0.0567757358" id="Fill-5"></path>
                    <path d="M78.7344633,0.0563027839 L78.7344633,3.71598373 L78.6174634,3.71598373 L78.2658789,3.71598373 L77.1549653,3.71598373 C76.8039658,3.71598373 76.5699661,3.54707538 76.5114661,3.32186425 C76.5114661,3.20925868 76.4529662,2.92774476 76.3944663,2.42101971 L72.3579715,2.42101971 L72.3579715,13.4563653 C72.7089711,13.5126681 72.9429708,13.5126681 73.1769705,13.5689709 C73.3524702,13.5689709 73.52797,13.6252737 73.5864699,13.6252737 L73.7619697,13.6252737 C74.2299691,13.7378793 74.4639688,13.9067876 74.4639688,14.3009071 L74.4639688,15.5958711 L72.3579715,15.5958711 C70.8954734,15.5958711 70.1349744,15.5958711 68.6724763,15.6521739 L66.6249789,15.6521739 L66.6249789,14.3572099 C66.6249789,13.9630904 66.8589786,13.794182 67.326978,13.6815765 L67.5024778,13.6815765 C67.5603927,13.6815765 67.7364775,13.6252737 67.9119773,13.6252737 C68.087477,13.6252737 68.3799767,13.5689709 68.7303912,13.5126681 L68.7303912,2.42101971 L64.6944814,2.42101971 C64.6353965,2.87144198 64.5774816,3.20925868 64.5774816,3.32186425 C64.5189816,3.60337817 64.2849819,3.71598373 63.9339824,3.71598373 L62.7639839,3.71598373 L62.4129844,3.71598373 L62.2953995,3.71598373 L62.2953995,0 L62.705484,0 L78.2658789,0 C78.4419637,0.0563027839 78.5583785,0.0563027839 78.7344633,0.0563027839" id="Fill-7"></path>
                    <path d="M99.4995964,0 L99.4995964,1.57072872 L99.4995964,2.44335579 L99.4995964,4.36313533 L99.3888491,4.36313533 L99.0566069,4.36313533 L98.0045069,4.36313533 C97.6722647,4.36313533 97.5061437,4.18860992 97.3953963,3.95590937 C97.3953963,3.78138396 97.2846489,3.31598285 97.2292752,2.50153092 L91.1935432,2.50153092 L91.1935432,6.98101653 C93.7412866,6.98101653 95.0143277,7.03919167 97.5615174,7.03919167 L97.5615174,9.42437232 C95.0143277,9.36619718 93.7412866,9.36619718 91.1935432,9.30802205 L91.1935432,13.9038579 C93.6299855,13.9620331 94.7928329,13.9620331 97.2292752,14.0202082 C97.2846489,13.2057563 97.3953963,12.7403552 97.3953963,12.5658298 C97.45077,12.2749541 97.6722647,12.1586038 98.0045069,12.1586038 L99.0566069,12.1586038 L99.3888491,12.1586038 L99.4995964,12.1586038 L99.4995964,14.0783833 L99.4995964,14.9510104 L99.4995964,16.5217391 C94.7928329,16.3472137 92.4117643,16.2890386 87.6501809,16.2308634 C86.8743955,16.2308634 86.4867797,16.2308634 85.6561743,16.1726883 L85.6561743,14.8346601 C85.6561743,14.4274342 85.8776691,14.2529088 86.3206586,14.1365585 L86.4867797,14.1365585 C86.5427071,14.1365585 86.7082744,14.0783833 86.8743955,14.0783833 C87.0405165,14.0783833 87.317385,14.0202082 87.6501809,13.9620331 L87.6501809,2.21065524 C87.317385,2.1524801 87.0405165,2.09430496 86.8743955,2.09430496 C86.7082744,2.09430496 86.5427071,2.03612982 86.4867797,2.03612982 L86.3206586,2.03612982 C85.8776691,1.91977955 85.6561743,1.74525413 85.6561743,1.33802817 L85.6561743,0 L87.6501809,0 L99.4995964,0 Z" id="Fill-9"></path>
                    <path d="M126.321227,0 L126.321227,1.45900204 C126.321227,1.86752261 126.092345,2.15932302 125.633434,2.2176831 L125.460769,2.2176831 C125.403406,2.2176831 125.288678,2.27604319 125.059796,2.27604319 C124.887131,2.27604319 124.600312,2.33440327 124.256129,2.39276335 C121.560029,8.52057193 120.240661,11.4969361 117.544561,17.3913043 C116.225193,17.3329443 115.594764,17.2745842 114.274822,17.2162241 C111.636086,11.1467756 110.259354,8.17041144 107.563828,2.33440327 C107.219071,2.27604319 106.990189,2.2176831 106.817524,2.2176831 C106.645433,2.2176831 106.473341,2.15932302 106.416551,2.15932302 L106.243886,2.15932302 C105.784975,2.04260286 105.556094,1.80916253 105.556094,1.45900204 L105.556094,0.116720163 L106.473341,0.116720163 L107.563828,0.116720163 L109.341533,0.116720163 L112.726572,0.116720163 L112.726572,1.51736212 C112.726572,1.9258827 112.496544,2.15932302 112.038207,2.27604319 L111.922905,2.27604319 C111.866115,2.27604319 111.808178,2.33440327 111.636086,2.33440327 C111.521358,2.33440327 111.349267,2.39276335 111.234539,2.45112343 C112.783363,6.01108842 113.58703,7.76189087 115.13528,11.438576 C115.307945,11.7887365 115.422099,12.138897 115.594764,12.6057776 C115.708918,13.0142982 115.881583,13.4811789 115.995737,13.8896994 C116.225193,13.0142982 116.455222,12.1972571 116.742041,11.4969361 C118.29029,7.93697111 119.036594,6.18616866 120.52748,2.56784359 C120.355962,2.56784359 120.240661,2.50948351 120.125933,2.45112343 C120.011205,2.45112343 119.897051,2.39276335 119.839114,2.39276335 L119.724386,2.39276335 C119.265476,2.27604319 119.036594,2.04260286 119.036594,1.63408229 L119.036594,0.233440327 L122.478424,0.233440327 L124.256129,0.233440327 L125.346615,0.233440327 C125.747588,0 125.920254,0 126.321227,0" id="Fill-11"></path>
                    <path d="M153.142857,0.234627675 L153.142857,1.93567832 C153.142857,2.40493367 152.915429,2.69821826 152.460574,2.8155321 L152.290003,2.8155321 C152.233147,2.8155321 152.062576,2.87418902 151.892005,2.87418902 C151.721434,2.87418902 151.43715,2.93284593 151.096008,2.99150285 L151.096008,12.4352668 C151.096008,13.6670621 150.925438,14.7815435 150.527439,15.7200542 C150.129441,16.7172218 149.674585,17.5384187 148.992303,18.2423017 C148.31002,18.8875278 147.457166,19.4154401 146.490598,19.7087247 C145.524031,20.0020093 144.386893,20.0606662 143.192897,19.9433524 C141.998902,19.8260385 140.861764,19.5327539 139.895197,19.0048417 C138.928629,18.5355863 138.075775,17.8903602 137.393492,17.1278203 C136.71121,16.3652803 136.14264,15.4854265 135.801499,14.5469158 C135.403501,13.6084051 135.289787,12.5525806 135.289787,11.4380991 L135.289787,2.75687518 C134.948645,2.69821826 134.664361,2.63956134 134.49379,2.63956134 C134.323219,2.63956134 134.152648,2.58090442 134.095792,2.58090442 L133.925221,2.58090442 C133.470366,2.46359058 133.242938,2.22896291 133.242938,1.75970756 L133.242938,0.234627675 L135.289787,0.234627675 L138.871772,0.234627675 L140.975478,0.234627675 L140.975478,1.81836448 C140.975478,2.28761983 140.74805,2.5222475 140.293195,2.63956134 L140.122624,2.63956134 C140.065767,2.63956134 139.895197,2.69821826 139.667769,2.69821826 C139.440341,2.69821826 139.156057,2.75687518 138.871772,2.8155321 L138.871772,11.6140699 C138.871772,12.3766098 138.985486,13.0218359 139.156057,13.6084051 C139.326627,14.1949743 139.667769,14.7815435 140.00891,15.1921419 C140.406909,15.6613973 140.804907,15.9546819 141.373476,16.2479665 C141.885189,16.5412511 142.567471,16.7172218 143.249754,16.7758787 C143.932037,16.8345357 144.557463,16.7758787 145.126033,16.599908 C145.637745,16.4239372 146.149457,16.1306526 146.490598,15.7200542 C146.888597,15.3094558 147.116024,14.7815435 147.343452,14.1949743 C147.514023,13.6084051 147.684594,12.9045221 147.684594,12.1419822 L147.684594,2.87418902 C147.343452,2.8155321 147.059168,2.75687518 146.888597,2.69821826 C146.661169,2.63956134 146.490598,2.63956134 146.433741,2.58090442 C146.376885,2.58090442 146.263171,2.5222475 146.263171,2.5222475 C145.808315,2.40493367 145.580888,2.11164907 145.580888,1.64239372 L145.580888,0 L147.684594,0 L151.266579,0 C151.948862,0.234627675 152.34686,0.234627675 153.142857,0.234627675" id="Fill-13"></path>
                </g>
            </g>
        </g>
    </g>
</svg>