<svg width="124" height="37" viewBox="0 0 124 37" fill="none"
    xmlns="http://www.w3.org/2000/svg">
    <g clip-path="url(#clip0)">
        <path d="M55.932 10.008V30H70.072V26.304H60.328V10.008H55.932ZM74.4377 22.776C74.4377 22.1973 74.4937 21.628 74.6057 21.068C74.7177 20.508 74.9043 20.0133 75.1657 19.584C75.4457 19.1547 75.8097 18.8093 76.2577 18.548C76.7057 18.268 77.2657 18.128 77.9377 18.128C78.6097 18.128 79.1697 18.268 79.6177 18.548C80.0843 18.8093 80.4483 19.1547 80.7097 19.584C80.9897 20.0133 81.1857 20.508 81.2977 21.068C81.4097 21.628 81.4657 22.1973 81.4657 22.776C81.4657 23.3547 81.4097 23.924 81.2977 24.484C81.1857 25.0253 80.9897 25.52 80.7097 25.968C80.4483 26.3973 80.0843 26.7427 79.6177 27.004C79.1697 27.2653 78.6097 27.396 77.9377 27.396C77.2657 27.396 76.7057 27.2653 76.2577 27.004C75.8097 26.7427 75.4457 26.3973 75.1657 25.968C74.9043 25.52 74.7177 25.0253 74.6057 24.484C74.4937 23.924 74.4377 23.3547 74.4377 22.776ZM70.4617 22.776C70.4617 23.9333 70.639 24.9787 70.9937 25.912C71.3483 26.8453 71.8523 27.648 72.5057 28.32C73.159 28.9733 73.943 29.4773 74.8577 29.832C75.7723 30.1867 76.799 30.364 77.9377 30.364C79.0763 30.364 80.103 30.1867 81.0177 29.832C81.951 29.4773 82.7443 28.9733 83.3977 28.32C84.051 27.648 84.555 26.8453 84.9097 25.912C85.2643 24.9787 85.4417 23.9333 85.4417 22.776C85.4417 21.6187 85.2643 20.5733 84.9097 19.64C84.555 18.688 84.051 17.8853 83.3977 17.232C82.7443 16.56 81.951 16.0467 81.0177 15.692C80.103 15.3187 79.0763 15.132 77.9377 15.132C76.799 15.132 75.7723 15.3187 74.8577 15.692C73.943 16.0467 73.159 16.56 72.5057 17.232C71.8523 17.8853 71.3483 18.688 70.9937 19.64C70.639 20.5733 70.4617 21.6187 70.4617 22.776ZM93.5748 26.584C92.9588 26.584 92.4455 26.4533 92.0348 26.192C91.6242 25.9307 91.2882 25.5947 91.0268 25.184C90.7842 24.7733 90.6068 24.316 90.4948 23.812C90.4015 23.2893 90.3548 22.7667 90.3548 22.244C90.3548 21.7027 90.4108 21.1893 90.5228 20.704C90.6535 20.2 90.8495 19.7613 91.1108 19.388C91.3908 18.996 91.7268 18.688 92.1188 18.464C92.5295 18.24 93.0148 18.128 93.5748 18.128C94.2282 18.128 94.7695 18.2493 95.1988 18.492C95.6282 18.7347 95.9735 19.0613 96.2348 19.472C96.4962 19.8827 96.6828 20.3587 96.7948 20.9C96.9068 21.4227 96.9628 21.9827 96.9628 22.58C96.9628 23.1027 96.8882 23.6067 96.7388 24.092C96.6082 24.5587 96.4028 24.9787 96.1228 25.352C95.8428 25.7253 95.4882 26.024 95.0588 26.248C94.6295 26.472 94.1348 26.584 93.5748 26.584ZM100.743 29.076V15.524H96.9628V17.456H96.9068C96.4215 16.616 95.8148 16.0187 95.0868 15.664C94.3775 15.3093 93.5468 15.132 92.5948 15.132C91.5868 15.132 90.6908 15.328 89.9068 15.72C89.1415 16.112 88.4975 16.644 87.9748 17.316C87.4522 17.9693 87.0508 18.7347 86.7708 19.612C86.5095 20.4707 86.3788 21.3667 86.3788 22.3C86.3788 23.2893 86.4908 24.232 86.7148 25.128C86.9575 26.0053 87.3308 26.78 87.8348 27.452C88.3388 28.1053 88.9828 28.628 89.7668 29.02C90.5508 29.3933 91.4842 29.58 92.5668 29.58C93.4442 29.58 94.2748 29.4027 95.0588 29.048C95.8615 28.6747 96.4775 28.1053 96.9068 27.34H96.9628V29.244C96.9815 30.2707 96.7295 31.12 96.2068 31.792C95.7028 32.464 94.8908 32.8 93.7708 32.8C93.0615 32.8 92.4362 32.6507 91.8948 32.352C91.3535 32.072 90.9895 31.5587 90.8028 30.812H86.8548C86.9108 31.6333 87.1348 32.3333 87.5268 32.912C87.9375 33.5093 88.4415 33.9947 89.0388 34.368C89.6548 34.7413 90.3268 35.012 91.0548 35.18C91.8015 35.3667 92.5295 35.46 93.2388 35.46C94.9002 35.46 96.2255 35.236 97.2148 34.788C98.2042 34.34 98.9602 33.7893 99.4828 33.136C100.006 32.5013 100.342 31.8107 100.491 31.064C100.659 30.3173 100.743 29.6547 100.743 29.076ZM106.272 22.776C106.272 22.1973 106.328 21.628 106.44 21.068C106.552 20.508 106.739 20.0133 107 19.584C107.28 19.1547 107.644 18.8093 108.092 18.548C108.54 18.268 109.1 18.128 109.772 18.128C110.444 18.128 111.004 18.268 111.452 18.548C111.919 18.8093 112.283 19.1547 112.544 19.584C112.824 20.0133 113.02 20.508 113.132 21.068C113.244 21.628 113.3 22.1973 113.3 22.776C113.3 23.3547 113.244 23.924 113.132 24.484C113.02 25.0253 112.824 25.52 112.544 25.968C112.283 26.3973 111.919 26.7427 111.452 27.004C111.004 27.2653 110.444 27.396 109.772 27.396C109.1 27.396 108.54 27.2653 108.092 27.004C107.644 26.7427 107.28 26.3973 107 25.968C106.739 25.52 106.552 25.0253 106.44 24.484C106.328 23.924 106.272 23.3547 106.272 22.776ZM102.296 22.776C102.296 23.9333 102.473 24.9787 102.828 25.912C103.183 26.8453 103.687 27.648 104.34 28.32C104.993 28.9733 105.777 29.4773 106.692 29.832C107.607 30.1867 108.633 30.364 109.772 30.364C110.911 30.364 111.937 30.1867 112.852 29.832C113.785 29.4773 114.579 28.9733 115.232 28.32C115.885 27.648 116.389 26.8453 116.744 25.912C117.099 24.9787 117.276 23.9333 117.276 22.776C117.276 21.6187 117.099 20.5733 116.744 19.64C116.389 18.688 115.885 17.8853 115.232 17.232C114.579 16.56 113.785 16.0467 112.852 15.692C111.937 15.3187 110.911 15.132 109.772 15.132C108.633 15.132 107.607 15.3187 106.692 15.692C105.777 16.0467 104.993 16.56 104.34 17.232C103.687 17.8853 103.183 18.688 102.828 19.64C102.473 20.5733 102.296 21.6187 102.296 22.776Z" fill="#0065F2"/>
        <path d="M44 28.0555L26.3643 37L9 28.0555V10.9797L26.3643 2L44 10.9797V28.0555ZM26.3643 6.18222L14.562 12.4705L26.3643 18.569L38.438 12.4705L26.3643 6.18222Z" fill="#0065F2"/>
    </g>
    <defs>
        <clipPath id="clip0">
            <rect width="124" height="37" fill="white"/>
        </clipPath>
    </defs>
</svg>
